<svg version="1.0" id="Layer_1" xmlns="http://www.w3.org/2000/svg" xmlns:xlink="http://www.w3.org/1999/xlink" x="0px" y="0px" height="30px" viewBox="0 0 192.195 33.602" enable-background="new 0 0 192.195 33.602" xml:space="preserve">
<g>
	<path fill="#FFFFFF" d="M16.819,26.14c0,1.758,0.246,2.846,0.737,3.266c0.492,0.422,1.657,0.668,3.496,0.74
		c0.142,0.158,0.217,0.43,0.224,0.816s-0.068,0.643-0.224,0.77c-2.935-0.064-4.966-0.096-6.098-0.096
		c-1.233,0-3.291,0.031-6.172,0.096c-0.086-0.127-0.128-0.383-0.128-0.77s0.056-0.658,0.169-0.816
		c1.825-0.057,2.985-0.301,3.481-0.729c0.495-0.428,0.743-1.52,0.743-3.277V9.269c0-1.428-0.154-2.509-0.461-3.244
		s-0.847-1.103-1.618-1.103H8.826c-1.515,0-2.758,0.36-3.729,1.08C4.125,6.723,3.439,7.955,3.039,9.701
		c-0.614,0-1.114-0.071-1.5-0.214c0.586-2.514,0.95-4.636,1.093-6.365c0-0.086,0.063-0.129,0.192-0.129
		c2.96,0.229,6.371,0.343,10.232,0.343h3.775c3.89,0,7.171-0.114,9.845-0.343c0.086,0,0.129,0.042,0.129,0.125
		c0.028,1.864,0.214,3.944,0.557,6.237c-0.329,0.145-0.821,0.217-1.479,0.217c-0.356-1.689-1.03-2.886-2.021-3.592
		c-0.99-0.705-2.348-1.058-4.073-1.058h-0.962c-0.755,0-1.279,0.371-1.571,1.114c-0.292,0.742-0.438,1.862-0.438,3.361V26.14z"></path>
	<path fill="#FFFFFF" d="M24.439,22.631c0-2.896,0.807-5.293,2.422-7.191c1.742-2.04,4.036-3.06,6.879-3.06
		c2.1,0,3.875,0.517,5.325,1.552c1.45,1.035,2.461,2.269,3.033,3.703c0.571,1.436,0.857,2.973,0.857,4.613
		c0,3.062-0.95,5.521-2.85,7.38c-1.672,1.645-3.822,2.461-6.451,2.445c-2.929,0-5.197-0.951-6.804-2.854
		S24.439,25.121,24.439,22.631z M33.076,13.965c-3.243,0-4.865,2.555-4.865,7.666c0,0.937,0.111,1.885,0.333,2.843
		c0.221,0.957,0.55,1.9,0.986,2.832c0.435,0.93,1.064,1.691,1.885,2.289c0.822,0.594,1.775,0.893,2.861,0.893
		c1.286,0,2.425-0.523,3.418-1.576c0.993-1.049,1.489-2.809,1.489-5.279c0-3.109-0.543-5.497-1.629-7.165
		C36.469,14.8,34.976,13.965,33.076,13.965z"></path>
	<path fill="#FFFFFF" d="M50.827,15.924c0,0.354,0.1,0.389,0.299,0.106c0.042-0.042,0.079-0.078,0.107-0.106
		c2.251-2.363,4.467-3.544,6.648-3.544c1.113,0,2.069,0.303,2.869,0.908c0.799,0.605,1.306,1.371,1.52,2.297
		c0.071,0.284,0.229,0.291,0.472,0.021c0.729-0.765,1.529-1.397,2.4-1.898c0.871-0.5,1.7-0.846,2.486-1.039
		c0.785-0.193,1.571-0.289,2.357-0.289c1.786,0,2.986,0.596,3.6,1.788s0.922,2.91,0.922,5.152v6.855c0,1.74,0.153,2.813,0.46,3.217
		c0.308,0.402,1.089,0.654,2.347,0.754c0.115,0.125,0.172,0.383,0.172,0.77s-0.057,0.658-0.172,0.816
		c-2.514-0.064-4.022-0.096-4.521-0.096c-0.528,0-2.021,0.031-4.479,0.096c-0.114-0.158-0.171-0.43-0.171-0.816
		s0.057-0.645,0.171-0.77c1.2-0.086,1.954-0.34,2.261-0.764c0.308-0.426,0.461-1.494,0.461-3.207v-7.64
		c0-1.387-0.218-2.381-0.653-2.982c-0.436-0.602-1.089-0.902-1.961-0.902c-2.1,0-4.036,0.962-5.807,2.887
		c0.028,0.354,0.043,0.935,0.043,1.741v6.897c0,1.74,0.146,2.813,0.439,3.217c0.292,0.402,1.011,0.654,2.154,0.754
		c0.114,0.125,0.172,0.389,0.172,0.793c0,0.402-0.058,0.666-0.172,0.793c-2.514-0.064-3.951-0.096-4.307-0.096
		c-0.528,0-2.019,0.031-4.472,0.096c-0.119-0.127-0.178-0.383-0.178-0.77s0.057-0.658,0.171-0.816
		c1.229-0.086,1.989-0.334,2.282-0.744c0.292-0.408,0.439-1.486,0.439-3.227v-7.555c0-2.632-0.962-3.955-2.886-3.97
		c-1.396,0-2.972,0.856-4.724,2.568c-0.499,0.524-0.748,1.132-0.748,1.827v7.129c0,1.219,0.075,2.082,0.225,2.592
		c0.149,0.508,0.381,0.844,0.695,1.006c0.313,0.164,0.883,0.287,1.71,0.373c0.118,0.141,0.178,0.406,0.178,0.793
		s-0.06,0.65-0.178,0.793c-2.46-0.064-3.911-0.096-4.354-0.096c-0.756,0-2.331,0.031-4.726,0.096
		c-0.114-0.127-0.171-0.383-0.171-0.77s0.057-0.658,0.171-0.816c1.277-0.086,2.092-0.34,2.447-0.764
		c0.355-0.426,0.532-1.494,0.532-3.207v-8.467c0-1.216-0.172-1.984-0.514-2.303c-0.343-0.318-1.129-0.534-2.358-0.647
		c-0.171-0.5-0.2-0.914-0.085-1.243c2.288-0.286,4.136-0.707,5.545-1.264c0.229,0,0.409,0.114,0.539,0.342
		C50.712,13.12,50.827,14.23,50.827,15.924z"></path>
	<path fill="#FFFFFF" d="M89.193,29.552h-0.085l-0.875,0.682c-0.969,0.758-1.759,1.252-2.372,1.488
		c-0.612,0.234-1.41,0.352-2.393,0.352c-1.709,0-3.079-0.377-4.109-1.131c-1.03-0.752-1.545-1.947-1.545-3.582
		c0-1.459,0.684-2.746,2.049-3.861c1.366-1.116,3.13-1.944,5.294-2.483l3.784-0.945c0.168-0.056,0.252-0.225,0.252-0.506
		c0-3.733-1.182-5.6-3.546-5.6c-0.969,0-1.816,0.15-2.543,0.449c-0.726,0.299-1.09,0.748-1.09,1.346
		c0,0.404,0.029,0.682,0.086,0.835c0.086,0.167,0.129,0.424,0.129,0.772c0,0.32-0.176,0.637-0.528,0.95
		c-0.352,0.313-0.822,0.469-1.411,0.469c-1.036,0-1.547-0.515-1.533-1.543c0-1.2,0.762-2.311,2.285-3.333
		c1.524-1.021,3.18-1.532,4.969-1.532c4.437,0,6.655,2.499,6.655,7.497v6.484c0,0.838,0.021,1.475,0.064,1.914
		s0.204,0.846,0.482,1.223c0.279,0.373,0.682,0.563,1.211,0.563c0.357,0,0.665-0.115,0.922-0.344
		c0.256-0.229,0.399-0.344,0.428-0.344c0.086,0,0.204,0.088,0.354,0.258c0.15,0.172,0.225,0.33,0.225,0.473
		c0,0.086-0.154,0.281-0.461,0.59c-0.307,0.307-0.768,0.613-1.382,0.922c-0.615,0.305-1.244,0.459-1.886,0.459
		C90.842,32.089,89.7,31.248,89.193,29.552z M89.193,21.423l-3.472,0.892c-2.787,0.717-4.166,2.332-4.135,4.849
		c0,0.787,0.267,1.504,0.801,2.156c0.535,0.65,1.315,0.977,2.341,0.977s2.307-0.637,3.846-1.908
		c0.413-0.285,0.619-0.666,0.619-1.135V21.423z"></path>
	<path fill="#FFFFFF" d="M103.703,19.046v7.129c0,1.232,0.074,2.105,0.224,2.621c0.15,0.52,0.383,0.854,0.697,1.01
		c0.314,0.156,0.878,0.268,1.692,0.34c0.129,0.141,0.197,0.406,0.204,0.793s-0.061,0.65-0.204,0.793
		c-2.457-0.064-3.9-0.096-4.328-0.096c-0.802,0-2.408,0.031-4.822,0.096c-0.129-0.143-0.193-0.406-0.193-0.793
		s0.064-0.652,0.193-0.793c0.729-0.057,1.253-0.121,1.575-0.193c0.322-0.07,0.618-0.244,0.89-0.52
		c0.271-0.277,0.439-0.658,0.503-1.143c0.064-0.482,0.096-1.193,0.096-2.131V7.088c0-0.938-0.021-1.638-0.064-2.099
		c-0.043-0.461-0.225-0.803-0.546-1.023c-0.322-0.22-0.572-0.337-0.75-0.352c-0.179-0.014-0.661-0.05-1.447-0.107
		c-0.329-0.329-0.415-0.764-0.257-1.308c2.6-0.2,4.65-0.6,6.15-1.2c0.386,0,0.571,0.15,0.557,0.45
		c-0.114,1.17-0.17,2.705-0.17,4.603l-0.043,9.868c0.028,0.314,0.171,0.315,0.429,0.004c2.143-2.363,4.636-3.544,7.479-3.544
		c1.671,0,2.885,0.496,3.643,1.489c0.786,1.022,1.179,2.967,1.179,5.834v6.472c0,1.713,0.167,2.771,0.504,3.174
		c0.335,0.404,1.146,0.668,2.433,0.797c0.114,0.125,0.171,0.383,0.171,0.77s-0.058,0.658-0.171,0.816
		c-2.515-0.064-4.065-0.096-4.651-0.096c-0.529,0-2.022,0.031-4.479,0.096c-0.115-0.127-0.171-0.383-0.171-0.77
		s0.056-0.658,0.171-0.816c1.2-0.113,1.954-0.375,2.261-0.785c0.307-0.41,0.461-1.473,0.461-3.186v-6.599
		c0-1.543-0.172-2.661-0.515-3.354c-0.529-1.047-1.308-1.571-2.336-1.571c-1.986,0-3.857,0.856-5.615,2.568
		C103.952,17.757,103.703,18.366,103.703,19.046z"></path>
	<path fill="#FFFFFF" d="M131.29,29.552h-0.086l-0.876,0.682c-0.968,0.758-1.758,1.252-2.372,1.488
		c-0.612,0.234-1.409,0.352-2.392,0.352c-1.709,0-3.078-0.377-4.108-1.131c-1.03-0.752-1.545-1.947-1.545-3.582
		c0-1.459,0.683-2.746,2.049-3.861c1.365-1.116,3.129-1.944,5.293-2.483l3.785-0.945c0.168-0.056,0.252-0.225,0.252-0.506
		c0-3.733-1.182-5.6-3.546-5.6c-0.97,0-1.817,0.15-2.544,0.449c-0.726,0.299-1.09,0.748-1.09,1.346c0,0.404,0.029,0.682,0.086,0.835
		c0.086,0.167,0.129,0.424,0.129,0.772c0,0.32-0.177,0.637-0.527,0.95c-0.353,0.313-0.822,0.469-1.411,0.469
		c-1.036,0-1.548-0.515-1.533-1.543c0-1.2,0.762-2.311,2.285-3.333c1.524-1.021,3.18-1.532,4.968-1.532
		c4.437,0,6.655,2.499,6.655,7.497v6.484c0,0.838,0.021,1.475,0.064,1.914s0.203,0.846,0.482,1.223
		c0.278,0.373,0.682,0.563,1.211,0.563c0.356,0,0.663-0.115,0.921-0.344c0.257-0.229,0.4-0.344,0.429-0.344
		c0.085,0,0.203,0.088,0.353,0.258c0.151,0.172,0.226,0.33,0.226,0.473c0,0.086-0.153,0.281-0.46,0.59
		c-0.308,0.307-0.769,0.613-1.382,0.922c-0.615,0.305-1.244,0.459-1.888,0.459C132.938,32.089,131.796,31.248,131.29,29.552z
		 M131.29,21.423l-3.472,0.892c-2.787,0.717-4.166,2.332-4.136,4.849c0,0.787,0.267,1.504,0.802,2.156
		c0.534,0.65,1.314,0.977,2.341,0.977c1.025,0,2.307-0.637,3.846-1.908c0.413-0.285,0.619-0.666,0.619-1.135V21.423z"></path>
	<path fill="#FFFFFF" d="M145.848,14.308c-1.014,0.057-1.604,0.298-1.769,0.724c-0.163,0.426-0.017,1.156,0.439,2.191l3.516,8.979
		c0.199,0.496,0.354,0.803,0.461,0.914c0.105,0.115,0.21,0.107,0.31-0.021c0.101-0.127,0.251-0.453,0.45-0.979l3.087-7.723
		l-0.278-0.681c-0.043-0.1-0.102-0.235-0.172-0.404c-0.214-0.553-0.383-0.958-0.504-1.213c-0.121-0.255-0.303-0.539-0.547-0.852
		c-0.243-0.312-0.535-0.535-0.878-0.669c-0.344-0.135-0.765-0.224-1.264-0.267c-0.115-0.124-0.172-0.376-0.172-0.758
		c0-0.381,0.057-0.657,0.172-0.828c2.171,0.063,3.456,0.094,3.856,0.094c0.757,0,2.221-0.031,4.394-0.094
		c0.113,0.156,0.17,0.428,0.17,0.817c0,0.389-0.057,0.645-0.17,0.769c-1.144,0.085-1.804,0.294-1.982,0.628
		c-0.18,0.333-0.054,1.011,0.374,2.032l3.794,9.534c0.2,0.51,0.343,0.779,0.429,0.809c0.071,0.027,0.157-0.072,0.257-0.299
		c0.014-0.014,0.107-0.24,0.278-0.68l3.687-9.065c0.157-0.384,0.265-0.681,0.321-0.894c0.057-0.212,0.086-0.46,0.086-0.745
		c0-0.283-0.083-0.503-0.246-0.659c-0.164-0.156-0.443-0.298-0.836-0.426c-0.393-0.128-0.911-0.206-1.554-0.234
		c-0.144-0.124-0.214-0.376-0.214-0.758c0-0.381,0.07-0.657,0.214-0.828c2.172,0.063,3.692,0.094,4.565,0.094
		c0.585,0,1.605-0.031,3.063-0.094c0.143,0.156,0.218,0.428,0.226,0.817c0.006,0.389-0.069,0.645-0.226,0.769
		c-1.028,0.057-1.8,0.337-2.314,0.841c-0.515,0.503-0.979,1.266-1.393,2.287l-5.722,13.831c-0.229,0.609-0.565,0.914-1.008,0.914
		c-0.443,0-0.793-0.291-1.051-0.873L153.177,20.5l-4.437,10.724c-0.284,0.639-0.635,0.957-1.049,0.957
		c-0.444,0-0.794-0.291-1.051-0.873l-5.743-14.085c-0.472-1.149-0.914-1.897-1.328-2.245c-0.415-0.348-1.128-0.571-2.144-0.67
		c-0.143-0.124-0.218-0.376-0.225-0.758c-0.009-0.381,0.067-0.657,0.225-0.828c1.515,0.063,2.801,0.094,3.857,0.094
		c0.871,0,2.393-0.031,4.564-0.094c0.143,0.156,0.214,0.428,0.214,0.817C146.062,13.928,145.99,14.184,145.848,14.308z"></path>
	<path fill="#FFFFFF" d="M171.936,26.16V7.088c0-0.938-0.021-1.638-0.064-2.099s-0.225-0.803-0.547-1.023
		c-0.321-0.22-0.571-0.337-0.75-0.352c-0.178-0.014-0.66-0.05-1.445-0.107c-0.33-0.329-0.416-0.764-0.258-1.308
		c2.6-0.2,4.644-0.6,6.128-1.2c0.387,0,0.579,0.15,0.579,0.45c-0.115,1.172-0.171,2.708-0.171,4.607v15.301
		c0.941-0.126,1.933-0.568,2.974-1.326c1.055-0.771,2.226-1.95,3.511-3.535c0.142-0.168,0.26-0.347,0.354-0.537
		c0.093-0.19,0.167-0.411,0.225-0.663s-0.047-0.474-0.311-0.663c-0.265-0.189-0.69-0.299-1.275-0.327
		c-0.115-0.124-0.171-0.376-0.171-0.758c0-0.381,0.056-0.657,0.171-0.828c2.172,0.063,3.607,0.094,4.308,0.094
		c0.386,0,1.657-0.031,3.814-0.094c0.143,0.156,0.215,0.428,0.215,0.817c0,0.389-0.072,0.645-0.215,0.769
		c-2.043,0.197-3.578,0.829-4.607,1.896l-3.856,3.917c-0.115,0.112-0.178,0.259-0.193,0.441c0,0.141,0.107,0.345,0.321,0.611
		l5.78,7.269c0.527,0.613,1.064,1.02,1.607,1.223c0.542,0.203,1.265,0.361,2.164,0.48c0.144,0.158,0.215,0.43,0.215,0.816
		s-0.071,0.643-0.215,0.77c-1.757-0.059-2.956-0.086-3.598-0.086s-1.544,0.027-2.708,0.086c-0.085,0-0.143-0.072-0.171-0.215
		c-0.171-0.617-0.78-1.65-1.831-3.098l-3.207-4.275c-0.472-0.627-0.943-1.106-1.414-1.435c-0.386-0.129-1.016-0.208-1.886-0.235
		v3.741c0,1.697,0.139,2.75,0.417,3.164c0.279,0.414,0.896,0.67,1.854,0.768c0.144,0.158,0.219,0.43,0.227,0.816
		c0.006,0.387-0.069,0.643-0.227,0.77c-2.514-0.064-3.842-0.096-3.985-0.096c-0.672,0-2.236,0.031-4.692,0.096
		c-0.144-0.127-0.215-0.383-0.215-0.77s0.071-0.658,0.215-0.816c1.285-0.086,2.096-0.334,2.432-0.746
		C171.767,28.988,171.936,27.908,171.936,26.16z"></path>
</g>
</svg>